<svg width="13" height="14" viewBox="0 0 13 14" fill="none" xmlns="http://www.w3.org/2000/svg">
<path d="M12.0556 7.92413H7.42596V12.5538C7.42596 12.7993 7.32841 13.0348 7.15476 13.2085C6.98112 13.3821 6.74561 13.4797 6.50004 13.4797C6.25447 13.4797 6.01895 13.3821 5.84531 13.2085C5.67166 13.0348 5.57411 12.7993 5.57411 12.5538V7.92413H0.944481C0.69891 7.92413 0.463397 7.82658 0.289752 7.65293C0.116107 7.47929 0.0185547 7.24378 0.0185547 6.99821C0.0185547 6.75263 0.116107 6.51712 0.289752 6.34348C0.463397 6.16983 0.69891 6.07228 0.944481 6.07228H5.57411V1.44265C5.57411 1.19708 5.67166 0.961566 5.84531 0.787921C6.01895 0.614276 6.25447 0.516724 6.50004 0.516724C6.74561 0.516724 6.98112 0.614276 7.15476 0.787921C7.32841 0.961566 7.42596 1.19708 7.42596 1.44265V6.07228H12.0556C12.3012 6.07228 12.5367 6.16983 12.7103 6.34348C12.884 6.51712 12.9815 6.75263 12.9815 6.99821C12.9815 7.24378 12.884 7.47929 12.7103 7.65293C12.5367 7.82658 12.3012 7.92413 12.0556 7.92413Z" fill="#FEFEFE"/>
</svg>
