<svg width="24" height="24" viewBox="0 0 24 24" fill="none" xmlns="http://www.w3.org/2000/svg">
<path d="M9.5 0.75H2C1.66848 0.75 1.35054 0.881696 1.11612 1.11612C0.881696 1.35054 0.75 1.66848 0.75 2V9.5C0.75 9.83152 0.881696 10.1495 1.11612 10.3839C1.35054 10.6183 1.66848 10.75 2 10.75H9.5C9.83152 10.75 10.1495 10.6183 10.3839 10.3839C10.6183 10.1495 10.75 9.83152 10.75 9.5V2C10.75 1.66848 10.6183 1.35054 10.3839 1.11612C10.1495 0.881696 9.83152 0.75 9.5 0.75ZM22 0.75H14.5C14.1685 0.75 13.8505 0.881696 13.6161 1.11612C13.3817 1.35054 13.25 1.66848 13.25 2V9.5C13.25 9.83152 13.3817 10.1495 13.6161 10.3839C13.8505 10.6183 14.1685 10.75 14.5 10.75H22C22.3315 10.75 22.6495 10.6183 22.8839 10.3839C23.1183 10.1495 23.25 9.83152 23.25 9.5V2C23.25 1.66848 23.1183 1.35054 22.8839 1.11612C22.6495 0.881696 22.3315 0.75 22 0.75ZM9.5 13.25H2C1.66848 13.25 1.35054 13.3817 1.11612 13.6161C0.881696 13.8505 0.75 14.1685 0.75 14.5V22C0.75 22.3315 0.881696 22.6495 1.11612 22.8839C1.35054 23.1183 1.66848 23.25 2 23.25H9.5C9.83152 23.25 10.1495 23.1183 10.3839 22.8839C10.6183 22.6495 10.75 22.3315 10.75 22V14.5C10.75 14.1685 10.6183 13.8505 10.3839 13.6161C10.1495 13.3817 9.83152 13.25 9.5 13.25ZM19.5 14.5H17V17H14.5V19.5H17V22H19.5V19.5H22V17H19.5V14.5Z" fill="#2F5CA7"/>
</svg>
