<svg width="27" height="28" viewBox="0 0 27 28" fill="none" xmlns="http://www.w3.org/2000/svg">
<mask id="path-1-outside-1_336_3503" maskUnits="userSpaceOnUse" x="-0.291016" y="-0.125" width="27" height="28" fill="black">
<rect fill="white" x="-0.291016" y="-0.125" width="27" height="28"/>
<path d="M16.0988 0.875C16.2973 0.875006 16.4906 0.938007 16.651 1.05493C16.8114 1.17185 16.9305 1.33666 16.9913 1.52562L18.0225 4.73C18.4556 4.94187 18.87 5.18 19.2656 5.44812L22.5581 4.73938C22.7523 4.69793 22.9545 4.71917 23.1358 4.80004C23.3171 4.88091 23.468 5.01723 23.5669 5.18938L26.1656 9.6875C26.2649 9.85954 26.3069 10.0587 26.2857 10.2561C26.2645 10.4536 26.1811 10.6392 26.0475 10.7862L23.7881 13.28C23.8211 13.7582 23.8211 14.2381 23.7881 14.7162L26.0475 17.2137C26.1811 17.3608 26.2645 17.5464 26.2857 17.7439C26.3069 17.9413 26.2649 18.1405 26.1656 18.3125L23.5669 22.8125C23.4678 22.9843 23.3167 23.1202 23.1355 23.2008C22.9542 23.2813 22.7521 23.3022 22.5581 23.2606L19.2656 22.5519C18.8719 22.8181 18.4556 23.0581 18.0244 23.27L16.9913 26.4744C16.9305 26.6633 16.8114 26.8281 16.651 26.9451C16.4906 27.062 16.2973 27.125 16.0988 27.125H10.9013C10.7028 27.125 10.5094 27.062 10.349 26.9451C10.1886 26.8281 10.0695 26.6633 10.0088 26.4744L8.97939 23.2719C8.54745 23.0606 8.13081 22.8194 7.73252 22.55L4.44189 23.2606C4.24777 23.3021 4.04549 23.2808 3.86421 23.2C3.68293 23.1191 3.53199 22.9828 3.43314 22.8106L0.834395 18.3125C0.73516 18.1405 0.693127 17.9413 0.714357 17.7439C0.735587 17.5464 0.818983 17.3608 0.95252 17.2137L3.21189 14.7162C3.17916 14.2393 3.17916 13.7607 3.21189 13.2838L0.95252 10.7862C0.818983 10.6392 0.735587 10.4536 0.714357 10.2561C0.693127 10.0587 0.73516 9.85954 0.834395 9.6875L3.43314 5.1875C3.53226 5.0157 3.68332 4.87976 3.86458 4.79924C4.04584 4.71872 4.24797 4.69776 4.44189 4.73938L7.73252 5.45C8.13002 5.18188 8.54627 4.94 8.97939 4.72813L10.0106 1.52562C10.0712 1.33727 10.1898 1.1729 10.3494 1.05603C10.509 0.939165 10.7016 0.875798 10.8994 0.875H16.0969H16.0988ZM15.4125 2.75H11.5875L10.5225 6.06313L9.80439 6.41375C9.45136 6.5865 9.11056 6.78321 8.78439 7.0025L8.12064 7.4525L4.71564 6.7175L2.80314 10.0325L5.13752 12.6163L5.08127 13.4113C5.05432 13.8033 5.05432 14.1967 5.08127 14.5887L5.13752 15.3837L2.79939 17.9675L4.71377 21.2825L8.11877 20.5494L8.78252 20.9975C9.10869 21.2168 9.44948 21.4135 9.80252 21.5862L10.5206 21.9369L11.5875 25.25H15.4163L16.485 21.935L17.2013 21.5862C17.5539 21.4139 17.8941 21.2172 18.2194 20.9975L18.8813 20.5494L22.2881 21.2825L24.2006 17.9675L21.8644 15.3837L21.9206 14.5887C21.9477 14.1961 21.9477 13.802 21.9206 13.4094L21.8644 12.6144L24.2025 10.0325L22.2881 6.7175L18.8813 7.44875L18.2194 7.0025C17.8941 6.78281 17.5539 6.58608 17.2013 6.41375L16.485 6.065L15.4144 2.75H15.4125ZM13.5 8.375C14.9919 8.375 16.4226 8.96763 17.4775 10.0225C18.5324 11.0774 19.125 12.5082 19.125 14C19.125 15.4918 18.5324 16.9226 17.4775 17.9775C16.4226 19.0324 14.9919 19.625 13.5 19.625C12.0082 19.625 10.5774 19.0324 9.52254 17.9775C8.46765 16.9226 7.87502 15.4918 7.87502 14C7.87502 12.5082 8.46765 11.0774 9.52254 10.0225C10.5774 8.96763 12.0082 8.375 13.5 8.375ZM13.5 10.25C12.5055 10.25 11.5516 10.6451 10.8484 11.3483C10.1451 12.0516 9.75002 13.0054 9.75002 14C9.75002 14.9946 10.1451 15.9484 10.8484 16.6516C11.5516 17.3549 12.5055 17.75 13.5 17.75C14.4946 17.75 15.4484 17.3549 16.1517 16.6516C16.8549 15.9484 17.25 14.9946 17.25 14C17.25 13.0054 16.8549 12.0516 16.1517 11.3483C15.4484 10.6451 14.4946 10.25 13.5 10.25Z"/>
</mask>
<path d="M16.0988 0.875C16.2973 0.875006 16.4906 0.938007 16.651 1.05493C16.8114 1.17185 16.9305 1.33666 16.9913 1.52562L18.0225 4.73C18.4556 4.94187 18.87 5.18 19.2656 5.44812L22.5581 4.73938C22.7523 4.69793 22.9545 4.71917 23.1358 4.80004C23.3171 4.88091 23.468 5.01723 23.5669 5.18938L26.1656 9.6875C26.2649 9.85954 26.3069 10.0587 26.2857 10.2561C26.2645 10.4536 26.1811 10.6392 26.0475 10.7862L23.7881 13.28C23.8211 13.7582 23.8211 14.2381 23.7881 14.7162L26.0475 17.2137C26.1811 17.3608 26.2645 17.5464 26.2857 17.7439C26.3069 17.9413 26.2649 18.1405 26.1656 18.3125L23.5669 22.8125C23.4678 22.9843 23.3167 23.1202 23.1355 23.2008C22.9542 23.2813 22.7521 23.3022 22.5581 23.2606L19.2656 22.5519C18.8719 22.8181 18.4556 23.0581 18.0244 23.27L16.9913 26.4744C16.9305 26.6633 16.8114 26.8281 16.651 26.9451C16.4906 27.062 16.2973 27.125 16.0988 27.125H10.9013C10.7028 27.125 10.5094 27.062 10.349 26.9451C10.1886 26.8281 10.0695 26.6633 10.0088 26.4744L8.97939 23.2719C8.54745 23.0606 8.13081 22.8194 7.73252 22.55L4.44189 23.2606C4.24777 23.3021 4.04549 23.2808 3.86421 23.2C3.68293 23.1191 3.53199 22.9828 3.43314 22.8106L0.834395 18.3125C0.73516 18.1405 0.693127 17.9413 0.714357 17.7439C0.735587 17.5464 0.818983 17.3608 0.95252 17.2137L3.21189 14.7162C3.17916 14.2393 3.17916 13.7607 3.21189 13.2838L0.95252 10.7862C0.818983 10.6392 0.735587 10.4536 0.714357 10.2561C0.693127 10.0587 0.73516 9.85954 0.834395 9.6875L3.43314 5.1875C3.53226 5.0157 3.68332 4.87976 3.86458 4.79924C4.04584 4.71872 4.24797 4.69776 4.44189 4.73938L7.73252 5.45C8.13002 5.18188 8.54627 4.94 8.97939 4.72813L10.0106 1.52562C10.0712 1.33727 10.1898 1.1729 10.3494 1.05603C10.509 0.939165 10.7016 0.875798 10.8994 0.875H16.0969H16.0988ZM15.4125 2.75H11.5875L10.5225 6.06313L9.80439 6.41375C9.45136 6.5865 9.11056 6.78321 8.78439 7.0025L8.12064 7.4525L4.71564 6.7175L2.80314 10.0325L5.13752 12.6163L5.08127 13.4113C5.05432 13.8033 5.05432 14.1967 5.08127 14.5887L5.13752 15.3837L2.79939 17.9675L4.71377 21.2825L8.11877 20.5494L8.78252 20.9975C9.10869 21.2168 9.44948 21.4135 9.80252 21.5862L10.5206 21.9369L11.5875 25.25H15.4163L16.485 21.935L17.2013 21.5862C17.5539 21.4139 17.8941 21.2172 18.2194 20.9975L18.8813 20.5494L22.2881 21.2825L24.2006 17.9675L21.8644 15.3837L21.9206 14.5887C21.9477 14.1961 21.9477 13.802 21.9206 13.4094L21.8644 12.6144L24.2025 10.0325L22.2881 6.7175L18.8813 7.44875L18.2194 7.0025C17.8941 6.78281 17.5539 6.58608 17.2013 6.41375L16.485 6.065L15.4144 2.75H15.4125ZM13.5 8.375C14.9919 8.375 16.4226 8.96763 17.4775 10.0225C18.5324 11.0774 19.125 12.5082 19.125 14C19.125 15.4918 18.5324 16.9226 17.4775 17.9775C16.4226 19.0324 14.9919 19.625 13.5 19.625C12.0082 19.625 10.5774 19.0324 9.52254 17.9775C8.46765 16.9226 7.87502 15.4918 7.87502 14C7.87502 12.5082 8.46765 11.0774 9.52254 10.0225C10.5774 8.96763 12.0082 8.375 13.5 8.375ZM13.5 10.25C12.5055 10.25 11.5516 10.6451 10.8484 11.3483C10.1451 12.0516 9.75002 13.0054 9.75002 14C9.75002 14.9946 10.1451 15.9484 10.8484 16.6516C11.5516 17.3549 12.5055 17.75 13.5 17.75C14.4946 17.75 15.4484 17.3549 16.1517 16.6516C16.8549 15.9484 17.25 14.9946 17.25 14C17.25 13.0054 16.8549 12.0516 16.1517 11.3483C15.4484 10.6451 14.4946 10.25 13.5 10.25Z" fill="#2F5CA7"/>
<path d="M16.0988 0.875C16.2973 0.875006 16.4906 0.938007 16.651 1.05493C16.8114 1.17185 16.9305 1.33666 16.9913 1.52562L18.0225 4.73C18.4556 4.94187 18.87 5.18 19.2656 5.44812L22.5581 4.73938C22.7523 4.69793 22.9545 4.71917 23.1358 4.80004C23.3171 4.88091 23.468 5.01723 23.5669 5.18938L26.1656 9.6875C26.2649 9.85954 26.3069 10.0587 26.2857 10.2561C26.2645 10.4536 26.1811 10.6392 26.0475 10.7862L23.7881 13.28C23.8211 13.7582 23.8211 14.2381 23.7881 14.7162L26.0475 17.2137C26.1811 17.3608 26.2645 17.5464 26.2857 17.7439C26.3069 17.9413 26.2649 18.1405 26.1656 18.3125L23.5669 22.8125C23.4678 22.9843 23.3167 23.1202 23.1355 23.2008C22.9542 23.2813 22.7521 23.3022 22.5581 23.2606L19.2656 22.5519C18.8719 22.8181 18.4556 23.0581 18.0244 23.27L16.9913 26.4744C16.9305 26.6633 16.8114 26.8281 16.651 26.9451C16.4906 27.062 16.2973 27.125 16.0988 27.125H10.9013C10.7028 27.125 10.5094 27.062 10.349 26.9451C10.1886 26.8281 10.0695 26.6633 10.0088 26.4744L8.97939 23.2719C8.54745 23.0606 8.13081 22.8194 7.73252 22.55L4.44189 23.2606C4.24777 23.3021 4.04549 23.2808 3.86421 23.2C3.68293 23.1191 3.53199 22.9828 3.43314 22.8106L0.834395 18.3125C0.73516 18.1405 0.693127 17.9413 0.714357 17.7439C0.735587 17.5464 0.818983 17.3608 0.95252 17.2137L3.21189 14.7162C3.17916 14.2393 3.17916 13.7607 3.21189 13.2838L0.95252 10.7862C0.818983 10.6392 0.735587 10.4536 0.714357 10.2561C0.693127 10.0587 0.73516 9.85954 0.834395 9.6875L3.43314 5.1875C3.53226 5.0157 3.68332 4.87976 3.86458 4.79924C4.04584 4.71872 4.24797 4.69776 4.44189 4.73938L7.73252 5.45C8.13002 5.18188 8.54627 4.94 8.97939 4.72813L10.0106 1.52562C10.0712 1.33727 10.1898 1.1729 10.3494 1.05603C10.509 0.939165 10.7016 0.875798 10.8994 0.875H16.0969H16.0988ZM15.4125 2.75H11.5875L10.5225 6.06313L9.80439 6.41375C9.45136 6.5865 9.11056 6.78321 8.78439 7.0025L8.12064 7.4525L4.71564 6.7175L2.80314 10.0325L5.13752 12.6163L5.08127 13.4113C5.05432 13.8033 5.05432 14.1967 5.08127 14.5887L5.13752 15.3837L2.79939 17.9675L4.71377 21.2825L8.11877 20.5494L8.78252 20.9975C9.10869 21.2168 9.44948 21.4135 9.80252 21.5862L10.5206 21.9369L11.5875 25.25H15.4163L16.485 21.935L17.2013 21.5862C17.5539 21.4139 17.8941 21.2172 18.2194 20.9975L18.8813 20.5494L22.2881 21.2825L24.2006 17.9675L21.8644 15.3837L21.9206 14.5887C21.9477 14.1961 21.9477 13.802 21.9206 13.4094L21.8644 12.6144L24.2025 10.0325L22.2881 6.7175L18.8813 7.44875L18.2194 7.0025C17.8941 6.78281 17.5539 6.58608 17.2013 6.41375L16.485 6.065L15.4144 2.75H15.4125ZM13.5 8.375C14.9919 8.375 16.4226 8.96763 17.4775 10.0225C18.5324 11.0774 19.125 12.5082 19.125 14C19.125 15.4918 18.5324 16.9226 17.4775 17.9775C16.4226 19.0324 14.9919 19.625 13.5 19.625C12.0082 19.625 10.5774 19.0324 9.52254 17.9775C8.46765 16.9226 7.87502 15.4918 7.87502 14C7.87502 12.5082 8.46765 11.0774 9.52254 10.0225C10.5774 8.96763 12.0082 8.375 13.5 8.375ZM13.5 10.25C12.5055 10.25 11.5516 10.6451 10.8484 11.3483C10.1451 12.0516 9.75002 13.0054 9.75002 14C9.75002 14.9946 10.1451 15.9484 10.8484 16.6516C11.5516 17.3549 12.5055 17.75 13.5 17.75C14.4946 17.75 15.4484 17.3549 16.1517 16.6516C16.8549 15.9484 17.25 14.9946 17.25 14C17.25 13.0054 16.8549 12.0516 16.1517 11.3483C15.4484 10.6451 14.4946 10.25 13.5 10.25Z" stroke="#2F5CA7" stroke-width="0.4" mask="url(#path-1-outside-1_336_3503)"/>
</svg>
