<svg width="23" height="24" viewBox="0 0 23 24" fill="none" xmlns="http://www.w3.org/2000/svg">
<path d="M9 0.75H1.5C1.16848 0.75 0.850537 0.881696 0.616116 1.11612C0.381696 1.35054 0.25 1.66848 0.25 2V9.5C0.25 9.83152 0.381696 10.1495 0.616116 10.3839C0.850537 10.6183 1.16848 10.75 1.5 10.75H9C9.33152 10.75 9.64946 10.6183 9.88388 10.3839C10.1183 10.1495 10.25 9.83152 10.25 9.5V2C10.25 1.66848 10.1183 1.35054 9.88388 1.11612C9.64946 0.881696 9.33152 0.75 9 0.75ZM21.5 0.75H14C13.6685 0.75 13.3505 0.881696 13.1161 1.11612C12.8817 1.35054 12.75 1.66848 12.75 2V9.5C12.75 9.83152 12.8817 10.1495 13.1161 10.3839C13.3505 10.6183 13.6685 10.75 14 10.75H21.5C21.8315 10.75 22.1495 10.6183 22.3839 10.3839C22.6183 10.1495 22.75 9.83152 22.75 9.5V2C22.75 1.66848 22.6183 1.35054 22.3839 1.11612C22.1495 0.881696 21.8315 0.75 21.5 0.75ZM9 13.25H1.5C1.16848 13.25 0.850537 13.3817 0.616116 13.6161C0.381696 13.8505 0.25 14.1685 0.25 14.5V22C0.25 22.3315 0.381696 22.6495 0.616116 22.8839C0.850537 23.1183 1.16848 23.25 1.5 23.25H9C9.33152 23.25 9.64946 23.1183 9.88388 22.8839C10.1183 22.6495 10.25 22.3315 10.25 22V14.5C10.25 14.1685 10.1183 13.8505 9.88388 13.6161C9.64946 13.3817 9.33152 13.25 9 13.25ZM19 14.5H16.5V17H14V19.5H16.5V22H19V19.5H21.5V17H19V14.5Z" fill="#2F5CA7"/>
</svg>
