<svg width="21" height="26" viewBox="0 0 21 26" fill="none" xmlns="http://www.w3.org/2000/svg">
<path d="M3 13.5H3.5V13V0.5H12.75C17.0518 0.5 20.5 3.84709 20.5 7.94444C20.5 12.0418 17.0518 15.3889 12.75 15.3889H6H5.5V15.8889V18.7778V19.2778H6H11.5V21.1667H6H5.5V21.6667V25.5H3.5V21.6667V21.1667H3H0.5V19.2778H3H3.5V18.7778V15.8889V15.3889H3H0.5V13.5H3ZM5.5 13V13.5H6H12.75C15.9032 13.5 18.5 11.026 18.5 7.94444C18.5 4.86291 15.9032 2.38889 12.75 2.38889H6H5.5V2.88889V13Z" fill="#2F5CA7" stroke="#2F5CA7"/>
</svg>
