<svg width="28" height="28" viewBox="0 0 28 28" fill="none" xmlns="http://www.w3.org/2000/svg">
<path fill-rule="evenodd" clip-rule="evenodd" d="M12.2327 1.625C12.6752 1.18309 13.2672 0.923069 13.892 0.896227C14.5168 0.869384 15.129 1.07767 15.6077 1.48L15.7677 1.62625L18.1427 4H21.5002C22.1307 4.00012 22.7379 4.23847 23.2001 4.6673C23.6623 5.09613 23.9454 5.68377 23.9927 6.3125L24.0002 6.5V9.8575L26.3752 12.2325C26.8175 12.6751 27.0777 13.2673 27.1046 13.8924C27.1314 14.5175 26.9229 15.1299 26.5202 15.6088L26.374 15.7675L23.999 18.1425V21.5C23.9992 22.1307 23.7609 22.7382 23.3321 23.2007C22.9032 23.6632 22.3154 23.9464 21.6865 23.9938L21.5002 24H18.144L15.769 26.375C15.3264 26.8173 14.7341 27.0775 14.109 27.1043C13.484 27.1312 12.8715 26.9227 12.3927 26.52L12.234 26.375L9.85896 24H6.50021C5.86949 24.0002 5.262 23.762 4.79952 23.3331C4.33704 22.9043 4.05376 22.3164 4.00646 21.6875L4.00021 21.5V18.1425L1.62521 15.7675C1.18295 15.325 0.922704 14.7327 0.895859 14.1076C0.869014 13.4825 1.07752 12.8701 1.48021 12.3913L1.62521 12.2325L4.00021 9.8575V6.5C4.00032 5.8695 4.23867 5.26232 4.6675 4.80011C5.09633 4.3379 5.68398 4.05479 6.31271 4.0075L6.50021 4H9.85771L12.2327 1.625ZM17.849 10.2288L12.544 15.5338L10.334 13.3238C10.0994 13.0894 9.78135 12.9578 9.44976 12.9579C9.11818 12.958 8.80022 13.0898 8.56583 13.3244C8.33145 13.5589 8.19984 13.877 8.19995 14.2086C8.20007 14.5402 8.33191 14.8581 8.56646 15.0925L11.5715 18.0975C11.6991 18.2252 11.8508 18.3266 12.0176 18.3957C12.1845 18.4649 12.3633 18.5005 12.544 18.5005C12.7246 18.5005 12.9034 18.4649 13.0703 18.3957C13.2372 18.3266 13.3888 18.2252 13.5165 18.0975L19.6165 11.9963C19.8442 11.7605 19.9701 11.4447 19.9673 11.117C19.9644 10.7893 19.833 10.4757 19.6012 10.244C19.3695 10.0122 19.056 9.88076 18.7282 9.87791C18.4005 9.87506 18.0847 10.0011 17.849 10.2288Z" fill="#2F5CA7"/>
</svg>
