<svg width="31" height="30" viewBox="0 0 31 30" fill="none" xmlns="http://www.w3.org/2000/svg">
<path d="M9.40625 15C11.7362 15 13.625 13.1112 13.625 10.7812C13.625 8.4513 11.7362 6.5625 9.40625 6.5625C7.0763 6.5625 5.1875 8.4513 5.1875 10.7812C5.1875 13.1112 7.0763 15 9.40625 15Z" fill="#2F5CA7"/>
<path d="M14.2109 17.3437C12.5609 16.5059 10.7398 16.1719 9.40625 16.1719C6.79414 16.1719 1.4375 17.7738 1.4375 20.9766V23.4375H10.2266V22.4959C10.2266 21.3826 10.6953 20.2664 11.5156 19.3359C12.1701 18.593 13.0865 17.9033 14.2109 17.3437Z" fill="#2F5CA7"/>
<path d="M20.4219 16.875C17.3709 16.875 11.2812 18.7594 11.2812 22.5V25.3125H29.5625V22.5C29.5625 18.7594 23.4728 16.875 20.4219 16.875Z" fill="#2F5CA7"/>
<path d="M20.4219 15C23.2696 15 25.5781 12.6915 25.5781 9.84375C25.5781 6.99603 23.2696 4.6875 20.4219 4.6875C17.5742 4.6875 15.2656 6.99603 15.2656 9.84375C15.2656 12.6915 17.5742 15 20.4219 15Z" fill="#2F5CA7"/>
</svg>
