<svg width="28" height="28" viewBox="0 0 28 28" fill="none" xmlns="http://www.w3.org/2000/svg">
<path d="M0 5.25C0 3.85761 0.553124 2.52226 1.53769 1.53769C2.52226 0.553124 3.85761 0 5.25 0H19.25C20.6424 0 21.9777 0.553124 22.9623 1.53769C23.9469 2.52226 24.5 3.85761 24.5 5.25V11.55C22.6884 10.6245 20.6301 10.2969 18.6207 10.6141C16.6112 10.9312 14.7539 11.877 13.3154 13.3154C11.877 14.7539 10.9312 16.6112 10.6141 18.6207C10.2969 20.6301 10.6245 22.6884 11.55 24.5H5.25C3.85761 24.5 2.52226 23.9469 1.53769 22.9623C0.553124 21.9777 0 20.6424 0 19.25V5.25ZM11.1195 5.943C11.0382 5.86151 10.9417 5.79686 10.8354 5.75275C10.7291 5.70864 10.6151 5.68594 10.5 5.68594C10.3849 5.68594 10.2709 5.70864 10.1646 5.75275C10.0583 5.79686 9.96178 5.86151 9.8805 5.943L7.4095 8.414L6.71475 7.7805C6.54213 7.63296 6.31891 7.5583 6.09225 7.57231C5.8656 7.58632 5.65327 7.68789 5.50013 7.85557C5.347 8.02325 5.26504 8.2439 5.2716 8.47089C5.27815 8.69788 5.37269 8.91343 5.53525 9.072L6.84775 10.2708C7.01405 10.4222 7.23226 10.5037 7.45711 10.4985C7.68195 10.4933 7.89615 10.4017 8.05525 10.2427L11.1177 7.18025C11.2818 7.01616 11.3739 6.79364 11.3739 6.56162C11.3739 6.32961 11.2818 6.10709 11.1177 5.943M11.1177 15.932C11.2821 15.7677 11.3744 15.5449 11.3744 15.3125C11.3744 15.0801 11.2821 14.8573 11.1177 14.693C10.9534 14.5287 10.7306 14.4364 10.4982 14.4364C10.2659 14.4364 10.0431 14.5287 9.87875 14.693L7.40775 17.164L6.713 16.5305C6.54038 16.383 6.31716 16.3083 6.0905 16.3223C5.86385 16.3363 5.65152 16.4379 5.49838 16.6056C5.34525 16.7733 5.2633 16.9939 5.26985 17.2209C5.2764 17.4479 5.37094 17.6634 5.5335 17.822L6.846 19.0208C7.01208 19.1724 7.23017 19.2543 7.45501 19.2494C7.67984 19.2445 7.89417 19.1532 8.0535 18.9945L11.1177 15.932ZM14 7C13.7679 7 13.5454 7.09219 13.3813 7.25628C13.2172 7.42038 13.125 7.64294 13.125 7.875C13.125 8.10706 13.2172 8.32962 13.3813 8.49372C13.5454 8.65781 13.7679 8.75 14 8.75H18.375C18.6071 8.75 18.8296 8.65781 18.9937 8.49372C19.1578 8.32962 19.25 8.10706 19.25 7.875C19.25 7.64294 19.1578 7.42038 18.9937 7.25628C18.8296 7.09219 18.6071 7 18.375 7H14ZM28 20.125C28 18.0364 27.1703 16.0334 25.6935 14.5565C24.2166 13.0797 22.2136 12.25 20.125 12.25C18.0364 12.25 16.0334 13.0797 14.5565 14.5565C13.0797 16.0334 12.25 18.0364 12.25 20.125C12.25 22.2136 13.0797 24.2166 14.5565 25.6935C16.0334 27.1703 18.0364 28 20.125 28C22.2136 28 24.2166 27.1703 25.6935 25.6935C27.1703 24.2166 28 22.2136 28 20.125ZM21 16.625V19.25H23.625C23.8571 19.25 24.0796 19.3422 24.2437 19.5063C24.4078 19.6704 24.5 19.8929 24.5 20.125C24.5 20.3571 24.4078 20.5796 24.2437 20.7437C24.0796 20.9078 23.8571 21 23.625 21H21V23.625C21 23.8571 20.9078 24.0796 20.7437 24.2437C20.5796 24.4078 20.3571 24.5 20.125 24.5C19.8929 24.5 19.6704 24.4078 19.5063 24.2437C19.3422 24.0796 19.25 23.8571 19.25 23.625V21H16.625C16.3929 21 16.1704 20.9078 16.0063 20.7437C15.8422 20.5796 15.75 20.3571 15.75 20.125C15.75 19.8929 15.8422 19.6704 16.0063 19.5063C16.1704 19.3422 16.3929 19.25 16.625 19.25H19.25V16.625C19.25 16.3929 19.3422 16.1704 19.5063 16.0063C19.6704 15.8422 19.8929 15.75 20.125 15.75C20.3571 15.75 20.5796 15.8422 20.7437 16.0063C20.9078 16.1704 21 16.3929 21 16.625Z" fill="#2F5CA7"/>
</svg>
