<svg width="16" height="13" viewBox="0 0 16 13" fill="none" xmlns="http://www.w3.org/2000/svg">
<path d="M9.26447 2.19319C9.10549 2.0136 9.01893 1.77607 9.02305 1.53063C9.02716 1.2852 9.12162 1.05103 9.28652 0.877453C9.45143 0.703879 9.6739 0.604454 9.90708 0.600123C10.1402 0.595793 10.3659 0.686895 10.5365 0.854239L15.3368 5.90687C15.5053 6.0845 15.6 6.32529 15.6 6.57634C15.6 6.8274 15.5053 7.06819 15.3368 7.24582L10.5365 12.2985C10.4541 12.3915 10.3548 12.4662 10.2444 12.518C10.134 12.5697 10.0148 12.5976 9.89393 12.5998C9.77308 12.6021 9.65304 12.5787 9.54097 12.531C9.42889 12.4834 9.32709 12.4125 9.24162 12.3225C9.15616 12.2325 9.08878 12.1254 9.04351 12.0074C8.99824 11.8895 8.97601 11.7631 8.97814 11.6359C8.98028 11.5087 9.00673 11.3832 9.05592 11.267C9.10511 11.1508 9.17604 11.0462 9.26447 10.9595L12.5286 7.52371H0.900046C0.661339 7.52371 0.432408 7.4239 0.263617 7.24623C0.0948258 7.06857 0 6.8276 0 6.57634C0 6.32509 0.0948258 6.08412 0.263617 5.90645C0.432408 5.72879 0.661339 5.62898 0.900046 5.62898H12.5286L9.26447 2.19319Z" fill="#2F5CA7"/>
</svg>
