<svg width="350" height="91" viewBox="0 0 350 91" fill="none" xmlns="http://www.w3.org/2000/svg">
<g opacity="0.25">
<path d="M2 3L99 62H227L256 112H348" stroke="#FEFEFE" stroke-width="2"/>
<ellipse cx="8.5" cy="8" rx="8.5" ry="8" transform="matrix(1 0 0 -1 68 56)" fill="#FEFEFE"/>
<circle cx="5" cy="5" r="5" transform="matrix(1 0 0 -1 0 10)" fill="#FEFEFE"/>
<ellipse cx="6" cy="5.5" rx="6" ry="5.5" transform="matrix(1 0 0 -1 140 69)" fill="#FEFEFE"/>
<path d="M155 64C155 59.632 151.246 56 146.5 56C141.754 56 138 59.632 138 64C138 68.368 141.754 72 146.5 72C151.246 72 155 68.368 155 64Z" stroke="#FEFEFE" stroke-width="2"/>
<path opacity="0.2" d="M103 57H231L250 90" stroke="#FEFEFE" stroke-width="2"/>
</g>
</svg>
