<svg width="419" height="81" viewBox="0 0 419 81" fill="none" xmlns="http://www.w3.org/2000/svg">
<g opacity="0.15">
<path d="M411.004 11H290.004L253.004 72H142.004L107.004 11H-15.9961" stroke="#2F5CA7" stroke-width="2"/>
<ellipse cx="5.5" cy="5" rx="5.5" ry="5" transform="matrix(-1 0 0 1 225.002 66)" fill="#2F5CA7"/>
<path opacity="0.2" d="M112 39L137 80H257L282 39" stroke="#2F5CA7" stroke-width="2"/>
<path d="M338.998 14H323.998L333.998 30H347.998L338.998 14Z" fill="#2F5CA7"/>
<path d="M355.996 14H340.996L350.996 30H364.996L355.996 14Z" fill="#2F5CA7"/>
<path d="M373.996 14H358.996L368.996 30H382.996L373.996 14Z" fill="#2F5CA7"/>
<path d="M391.996 14H376.996L386.996 30H400.996L391.996 14Z" fill="#2F5CA7"/>
<path d="M409.994 14H394.994L404.994 30H418.994L409.994 14Z" fill="#2F5CA7"/>
</g>
</svg>
