<svg width="293" height="72" viewBox="0 0 293 72" fill="none" xmlns="http://www.w3.org/2000/svg">
<g opacity="0.25">
<path d="M291 -38L194 21H66L37 71H-55" stroke="#FEFEFE" stroke-width="2"/>
<ellipse cx="216.5" cy="7" rx="8.5" ry="8" transform="rotate(180 216.5 7)" fill="#FEFEFE"/>
<ellipse cx="147" cy="22.5" rx="6" ry="5.5" transform="rotate(180 147 22.5)" fill="#FEFEFE"/>
<path d="M138 23C138 18.632 141.754 15 146.5 15C151.246 15 155 18.632 155 23C155 27.368 151.246 31 146.5 31C141.754 31 138 27.368 138 23Z" stroke="#FEFEFE" stroke-width="2"/>
<path opacity="0.2" d="M190 16H62L43 49" stroke="#FEFEFE" stroke-width="2"/>
<path d="M31 56H43L35 69H24L31 56Z" fill="#FEFEFE"/>
<path d="M17 56H29L21 69H10L17 56Z" fill="#FEFEFE"/>
<path d="M4 56H16L8 69H-3L4 56Z" fill="#FEFEFE"/>
<path d="M-10 56H2L-6 69H-17L-10 56Z" fill="#FEFEFE"/>
</g>
</svg>
