<svg width="54" height="54" viewBox="0 0 54 54" fill="none" xmlns="http://www.w3.org/2000/svg">
<rect width="54" height="54" rx="10" fill="#2F5CA7"/>
<g clip-path="url(#clip0_404_6088)">
<path fill-rule="evenodd" clip-rule="evenodd" d="M25.3725 13.9624C25.8658 13.7734 26.4047 13.7487 26.9125 13.892L27.1275 13.9624L35.8775 17.3228C36.3212 17.4931 36.7084 17.7891 36.9941 18.1762C37.2798 18.5634 37.4522 19.0256 37.4912 19.5092L37.5 19.7205V26.5859C37.4999 28.6602 36.953 30.6961 35.917 32.4786C34.881 34.2611 33.3942 35.7241 31.6137 36.7131L31.2812 36.891L27.0887 39.0378C26.8579 39.1559 26.6058 39.2238 26.3481 39.2375C26.0904 39.2511 25.8328 39.2102 25.5912 39.1172L25.4112 39.0378L21.2187 36.891C19.407 35.9633 17.8735 34.5518 16.78 32.8056C15.6865 31.0594 15.0737 29.0432 15.0063 26.9699L15 26.5859V19.7205C15 19.2355 15.1345 18.7604 15.3879 18.3507C15.6413 17.9409 16.0031 17.6133 16.4312 17.406L16.6225 17.3228L25.3725 13.9624ZM30.5412 22.1988L24.7937 28.0849L22.5837 25.8216C22.3492 25.5816 22.0311 25.4468 21.6996 25.4469C21.368 25.447 21.05 25.5821 20.8156 25.8223C20.5812 26.0625 20.4496 26.3882 20.4497 26.7278C20.4499 27.0674 20.5817 27.393 20.8162 27.633L23.8212 30.7105C23.9489 30.8413 24.1005 30.9451 24.2674 31.0159C24.4343 31.0867 24.6131 31.1232 24.7937 31.1232C24.9744 31.1232 25.1532 31.0867 25.3201 31.0159C25.487 30.9451 25.6386 30.8413 25.7662 30.7105L32.3087 24.0089C32.4281 23.8909 32.5234 23.7496 32.5889 23.5934C32.6544 23.4372 32.6889 23.2693 32.6903 23.0993C32.6918 22.9293 32.6601 22.7607 32.5973 22.6034C32.5344 22.4461 32.4416 22.3032 32.3242 22.183C32.2069 22.0628 32.0673 21.9677 31.9137 21.9033C31.7601 21.839 31.5955 21.8066 31.4295 21.8081C31.2635 21.8095 31.0995 21.8449 30.947 21.9119C30.7945 21.979 30.6566 22.0766 30.5412 22.1988Z" fill="#FEFEFE"/>
</g>
<defs>
<clipPath id="clip0_404_6088">
<rect width="30" height="30" fill="white" transform="translate(12 12)"/>
</clipPath>
</defs>
</svg>
