<svg width="54" height="54" viewBox="0 0 54 54" fill="none" xmlns="http://www.w3.org/2000/svg">
<rect width="54" height="54" rx="10" fill="#2F5CA7"/>
<path d="M34.9012 15.5143C34.9012 17.8447 34.4297 19.905 33.4867 21.6951C32.5437 23.4853 31.3639 24.8536 29.9473 25.8C31.3639 26.7465 32.5437 28.1148 33.4867 29.905C34.4297 31.6951 34.9012 33.7554 34.9012 36.0858H36.1762C36.3001 36.0858 36.402 36.1259 36.4816 36.2063C36.5613 36.2867 36.6012 36.3893 36.6012 36.5143V37.3715C36.6012 37.4965 36.5613 37.5992 36.4816 37.6795C36.402 37.7599 36.3001 37.8 36.1762 37.8H16.6262C16.5022 37.8 16.4004 37.7599 16.3207 37.6795C16.241 37.5992 16.2012 37.4965 16.2012 37.3715V36.5143C16.2012 36.3893 16.241 36.2867 16.3207 36.2063C16.4004 36.1259 16.5022 36.0858 16.6262 36.0858H17.9012C17.9012 33.7554 18.3727 31.6951 19.3156 29.905C20.2586 28.1148 21.4384 26.7465 22.8551 25.8C21.4384 24.8536 20.2586 23.4853 19.3156 21.6951C18.3727 19.905 17.9012 17.8447 17.9012 15.5143H16.6262C16.5022 15.5143 16.4004 15.4742 16.3207 15.3938C16.241 15.3134 16.2012 15.2108 16.2012 15.0858V14.2286C16.2012 14.1036 16.241 14.0009 16.3207 13.9206C16.4004 13.8402 16.5022 13.8 16.6262 13.8H36.1762C36.3001 13.8 36.402 13.8402 36.4816 13.9206C36.5613 14.0009 36.6012 14.1036 36.6012 14.2286V15.0858C36.6012 15.2108 36.5613 15.3134 36.4816 15.3938C36.402 15.4742 36.3001 15.5143 36.1762 15.5143H34.9012ZM27.809 24.9965C28.4908 24.7375 29.1504 24.3246 29.7879 23.7576C30.4254 23.1907 30.9987 22.5099 31.5078 21.7152C32.0169 20.9206 32.4264 19.9831 32.7363 18.9027C33.0462 17.8224 33.2012 16.6929 33.2012 15.5143H19.6012C19.6012 16.6929 19.7561 17.8224 20.066 18.9027C20.3759 19.9831 20.7854 20.9206 21.2945 21.7152C21.8036 22.5099 22.377 23.1907 23.0145 23.7576C23.652 24.3246 24.3116 24.7375 24.9934 24.9965C25.1616 25.059 25.2966 25.1639 25.3984 25.3112C25.5003 25.4585 25.5512 25.6215 25.5512 25.8C25.5512 25.9786 25.5003 26.1416 25.3984 26.2889C25.2966 26.4362 25.1616 26.5411 24.9934 26.6036C23.7803 27.059 22.7001 27.934 21.7527 29.2286H31.0496C30.1022 27.934 29.022 27.059 27.809 26.6036C27.6408 26.5411 27.5057 26.4362 27.4039 26.2889C27.3021 26.1416 27.2512 25.9786 27.2512 25.8C27.2512 25.6215 27.3021 25.4585 27.4039 25.3112C27.5057 25.1639 27.6408 25.059 27.809 24.9965Z" fill="#FEFEFE"/>
</svg>
