<svg width="54" height="55" viewBox="0 0 54 55" fill="none" xmlns="http://www.w3.org/2000/svg">
<rect y="0.5" width="54" height="54" rx="10" fill="#2F5CA7"/>
<g clip-path="url(#clip0_404_6096)">
<path fill-rule="evenodd" clip-rule="evenodd" d="M25.2337 15.125C25.6762 14.6831 26.2682 14.4231 26.893 14.3962C27.5178 14.3694 28.1299 14.5777 28.6087 14.98L28.7687 15.1263L31.1437 17.5H34.5012C35.1317 17.5001 35.7389 17.7385 36.2011 18.1673C36.6633 18.5961 36.9464 19.1838 36.9937 19.8125L37.0012 20V23.3575L39.3762 25.7325C39.8184 26.1751 40.0787 26.7673 40.1055 27.3924C40.1324 28.0175 39.9239 28.6299 39.5212 29.1088L39.3749 29.2675L36.9999 31.6425V35C37.0001 35.6307 36.7619 36.2382 36.3331 36.7007C35.9042 37.1632 35.3164 37.4464 34.6874 37.4938L34.5012 37.5H31.1449L28.7699 39.875C28.3274 40.3173 27.7351 40.5775 27.11 40.6043C26.4849 40.6312 25.8725 40.4227 25.3937 40.02L25.2349 39.875L22.8599 37.5H19.5012C18.8705 37.5002 18.263 37.262 17.8005 36.8331C17.338 36.4043 17.0547 35.8164 17.0074 35.1875L17.0012 35V31.6425L14.6262 29.2675C14.1839 28.825 13.9237 28.2327 13.8968 27.6076C13.87 26.9825 14.0785 26.3701 14.4812 25.8913L14.6262 25.7325L17.0012 23.3575V20C17.0013 19.3695 17.2396 18.7623 17.6685 18.3001C18.0973 17.8379 18.685 17.5548 19.3137 17.5075L19.5012 17.5H22.8587L25.2337 15.125ZM30.8499 23.7288L25.5449 29.0338L23.3349 26.8238C23.1004 26.5894 22.7823 26.4578 22.4507 26.4579C22.1192 26.458 21.8012 26.5898 21.5668 26.8244C21.3324 27.0589 21.2008 27.377 21.2009 27.7086C21.201 28.0402 21.3329 28.3581 21.5674 28.5925L24.5724 31.5975C24.7001 31.7252 24.8517 31.8266 25.0186 31.8957C25.1855 31.9649 25.3643 32.0005 25.5449 32.0005C25.7256 32.0005 25.9044 31.9649 26.0713 31.8957C26.2381 31.8266 26.3897 31.7252 26.5174 31.5975L32.6174 25.4963C32.8451 25.2605 32.9711 24.9447 32.9683 24.617C32.9654 24.2893 32.834 23.9757 32.6022 23.744C32.3704 23.5122 32.0569 23.3808 31.7292 23.3779C31.4014 23.3751 31.0857 23.5011 30.8499 23.7288Z" fill="#FEFEFE"/>
</g>
<defs>
<clipPath id="clip0_404_6096">
<rect width="30" height="30" fill="white" transform="translate(12 12.5)"/>
</clipPath>
</defs>
</svg>
