<svg width="54" height="54" viewBox="0 0 54 54" fill="none" xmlns="http://www.w3.org/2000/svg">
<rect width="54" height="54" rx="10" fill="#2F5CA7"/>
<path d="M30.75 17C33.4022 17 35.9457 18.0536 37.8211 19.9289C39.6964 21.8043 40.75 24.3478 40.75 27C40.75 29.6522 39.6964 32.1957 37.8211 34.0711C35.9457 35.9464 33.4022 37 30.75 37C28.0978 37 25.5543 35.9464 23.6789 34.0711C21.8036 32.1957 20.75 29.6522 20.75 27C20.75 24.3478 21.8036 21.8043 23.6789 19.9289C25.5543 18.0536 28.0978 17 30.75 17ZM30.75 19.5C28.7609 19.5 26.8532 20.2902 25.4467 21.6967C24.0402 23.1032 23.25 25.0109 23.25 27C23.25 28.9891 24.0402 30.8968 25.4467 32.3033C26.8532 33.7098 28.7609 34.5 30.75 34.5C32.7391 34.5 34.6468 33.7098 36.0533 32.3033C37.4598 30.8968 38.25 28.9891 38.25 27C38.25 25.0109 37.4598 23.1032 36.0533 21.6967C34.6468 20.2902 32.7391 19.5 30.75 19.5ZM29.5 22H31.375V26.725L34.2875 29.6375L32.9625 30.9625L29.5 27.5V22ZM14.5 34.5C14.1685 34.5 13.8505 34.3683 13.6161 34.1339C13.3817 33.8995 13.25 33.5815 13.25 33.25C13.25 32.9185 13.3817 32.6005 13.6161 32.3661C13.8505 32.1317 14.1685 32 14.5 32H19.2875C19.675 32.8875 20.175 33.725 20.75 34.5H14.5ZM15.75 28.25C15.4185 28.25 15.1005 28.1183 14.8661 27.8839C14.6317 27.6495 14.5 27.3315 14.5 27C14.5 26.6685 14.6317 26.3505 14.8661 26.1161C15.1005 25.8817 15.4185 25.75 15.75 25.75H18.3125L18.25 27L18.3125 28.25H15.75ZM17 22C16.6685 22 16.3505 21.8683 16.1161 21.6339C15.8817 21.3995 15.75 21.0815 15.75 20.75C15.75 20.4185 15.8817 20.1005 16.1161 19.8661C16.3505 19.6317 16.6685 19.5 17 19.5H20.75C20.175 20.275 19.675 21.1125 19.2875 22H17Z" fill="#FEFEFE"/>
</svg>
