<svg width="319" height="81" viewBox="0 0 319 81" fill="none" xmlns="http://www.w3.org/2000/svg">
<path opacity="0.4" d="M13 0V59H96.5L120 21H209L265 80H307.5" stroke="#3B588F" stroke-width="2"/>
<path d="M186.643 25H200L190.964 41H178L186.643 25Z" fill="#3B588F"/>
<path opacity="0.4" d="M170.643 25H184L174.964 41H162L170.643 25Z" fill="#3B588F"/>
<path opacity="0.4" d="M154.643 25H168L158.964 41H146L154.643 25Z" fill="#3B588F"/>
<path opacity="0.4" d="M138.643 25H152L142.964 41H130L138.643 25Z" fill="#3B588F"/>
<path opacity="0.4" d="M122.643 25H136L126.964 41H114L122.643 25Z" fill="#3B588F"/>
<circle cx="11" cy="59" r="7" fill="#3B588F"/>
<circle cx="11" cy="59" r="10" stroke="#3B588F" stroke-width="2"/>
<path opacity="0.2" d="M299.5 75H267.5L232 37" stroke="#3B588F" stroke-width="2"/>
</svg>
