<svg width="317" height="108" viewBox="0 0 317 108" fill="none" xmlns="http://www.w3.org/2000/svg">
<g opacity="0.4">
<path opacity="0.7" d="M316 19L287 56H200L175 98H75L1 1" stroke="#2F5CA7" stroke-width="2"/>
<circle cx="100" cy="98" r="10" fill="#2F5CA7"/>
<path opacity="0.2" d="M133 104.5H72L42 65.5" stroke="#2F5CA7" stroke-width="2"/>
<path d="M266.643 60H280L270.964 76H258L266.643 60Z" fill="#2F5CA7"/>
<path d="M250.643 60H264L254.964 76H242L250.643 60Z" fill="#EB6A6A"/>
<path d="M234.643 60H248L238.964 76H226L234.643 60Z" fill="#2F5CA7"/>
<path d="M218.643 60H232L222.964 76H210L218.643 60Z" fill="#2F5CA7"/>
<path d="M202.643 60H216L206.964 76H194L202.643 60Z" fill="#2F5CA7"/>
</g>
</svg>
