<svg width="222" height="130" viewBox="0 0 222 130" fill="none" xmlns="http://www.w3.org/2000/svg">
<path opacity="0.4" d="M204.5 65.0001H121.5L85.5 119H33.5L1 66.0001" stroke="#3B588F" stroke-width="2"/>
<path opacity="0.4" d="M67.1429 116H80.5L71.4643 100H58.5L67.1429 116Z" fill="#3B588F"/>
<path opacity="0.4" d="M51.1429 116H64.5L55.4643 100H42.5L51.1429 116Z" fill="#3B588F"/>
<path d="M35.1429 116H48.5L39.4643 100H26.5L35.1429 116Z" fill="#3B588F"/>
<circle opacity="0.6" cx="7" cy="7" r="7" transform="matrix(1 0 0 -1 149.5 72.0001)" fill="#3B588F"/>
<g opacity="0.6" filter="url(#filter0_d_404_6056)">
<circle cx="11" cy="11" r="10" transform="matrix(1 0 0 -1 145.5 76.0001)" stroke="#3B588F" stroke-width="2" shape-rendering="crispEdges"/>
</g>
<path opacity="0.2" d="M58.5 123H88.5L114 86.0001" stroke="#3B588F" stroke-width="2"/>
<defs>
<filter id="filter0_d_404_6056" x="91.5" y="0.00012207" width="130" height="130" filterUnits="userSpaceOnUse" color-interpolation-filters="sRGB">
<feFlood flood-opacity="0" result="BackgroundImageFix"/>
<feColorMatrix in="SourceAlpha" type="matrix" values="0 0 0 0 0 0 0 0 0 0 0 0 0 0 0 0 0 0 127 0" result="hardAlpha"/>
<feMorphology radius="10" operator="dilate" in="SourceAlpha" result="effect1_dropShadow_404_6056"/>
<feOffset/>
<feGaussianBlur stdDeviation="22"/>
<feComposite in2="hardAlpha" operator="out"/>
<feColorMatrix type="matrix" values="0 0 0 0 0.184314 0 0 0 0 0.360784 0 0 0 0 0.654902 0 0 0 1 0"/>
<feBlend mode="normal" in2="BackgroundImageFix" result="effect1_dropShadow_404_6056"/>
<feBlend mode="normal" in="SourceGraphic" in2="effect1_dropShadow_404_6056" result="shape"/>
</filter>
</defs>
</svg>
